<svg id="Layer_1" data-name="Layer 1" xmlns="http://www.w3.org/2000/svg" viewBox="0 0 320 72"><defs><style>.cls-1{fill:#bcbbbb;}.cls-2{fill:#97c35c;}.cls-3{fill:#3e682b;}.cls-4{fill:#618c3c;}.cls-5{fill:#94bf5a;}.cls-6{fill:#658a40;}.cls-7{fill:#739d48;}.cls-8{fill:#3d662a;}.cls-9{fill:#385e27;}.cls-10{font-size:34.98px;font-family:SegoeUIVariable-RegularDisplay, Segoe UI Variable;}.cls-11{font-family:SegoeUIVariable-BoldDisplay, Segoe UI Variable;font-weight:700;}</style></defs><path class="cls-1" d="M66.22,57.48V45.05h5.52V63H12.87v-18h5.52V57.48Z"/><path class="cls-2" d="M37.2,51.3l5.09,2.42-5.51,1.21a17.07,17.07,0,0,1-11.47-1.44l-4.45-2.23,4.83-1.15A17.06,17.06,0,0,1,37.2,51.3Z"/><path class="cls-3" d="M44.76,46.15l-2.47,7.57-2.45-7.58A70.12,70.12,0,0,1,40,18.68L42.32,9l2.28,9.68A70,70,0,0,1,44.76,46.15Z"/><path class="cls-4" d="M40,44.25l2.26,9.47-6.23-7.49A43.5,43.5,0,0,1,27,27.78l-1.87-8.35,5.57,6.49A43.55,43.55,0,0,1,40,44.25Z"/><path class="cls-5" d="M31.58,49.12s5.2,4.82,10.73,4.61C40.71,51.89,31.58,49.12,31.58,49.12Z"/><path class="cls-6" d="M32.71,41.65s9.61,5.91,9.61,12.07Z"/><path class="cls-7" d="M38.19,47.55l4.1,6.17L35.39,51a24.6,24.6,0,0,1-11.84-9.75L20,35.75,26.15,38A24.56,24.56,0,0,1,38.19,47.55Z"/><path class="cls-8" d="M45.66,40.47,42.32,53.68v0l0,0L39,40.47c.1.2,3.14,6.35,3.36,8.5C42.52,46.82,45.56,40.67,45.66,40.47Z"/><polygon class="cls-9" points="42.32 53.68 42.32 53.78 42.3 53.73 42.32 53.68"/><polygon class="cls-9" points="42.3 53.73 42.29 53.78 42.29 53.68 42.3 53.73"/><path class="cls-2" d="M47.41,51.3l-5.09,2.42,5.51,1.21A17.07,17.07,0,0,0,59.3,53.49l4.45-2.23-4.83-1.15A17.06,17.06,0,0,0,47.41,51.3Z"/><path class="cls-4" d="M44.58,44.25l-2.26,9.47,6.23-7.49a43.5,43.5,0,0,0,9.08-18.45l1.87-8.35-5.57,6.49A43.55,43.55,0,0,0,44.58,44.25Z"/><path class="cls-5" d="M53,49.12s-5.2,4.82-10.73,4.61C43.9,51.89,53,49.12,53,49.12Z"/><path class="cls-6" d="M51.9,41.65s-9.61,5.91-9.61,12.07Z"/><path class="cls-7" d="M46.42,47.55l-4.1,6.17L49.22,51a24.6,24.6,0,0,0,11.84-9.75l3.51-5.51L58.46,38A24.56,24.56,0,0,0,46.42,47.55Z"/><polygon class="cls-9" points="42.29 53.68 42.29 53.78 42.3 53.73 42.29 53.68"/><polygon class="cls-9" points="42.3 53.73 42.32 53.78 42.32 53.68 42.3 53.73"/><text class="cls-10" transform="translate(81 54)">canna<tspan class="cls-11" x="91.63" y="0">spy</tspan></text></svg>