<svg id="Layer_1" data-name="Layer 1" xmlns="http://www.w3.org/2000/svg" viewBox="0 0 512 512"><defs><style>.cls-1{fill:#bcbbbb;}.cls-2{fill:#97c35c;}.cls-3{fill:#3e682b;}.cls-4{fill:#618c3c;}.cls-5{fill:#94bf5a;}.cls-6{fill:#658a40;}.cls-7{fill:#739d48;}.cls-8{fill:#3d662a;}.cls-9{fill:#385e27;}</style></defs><path class="cls-1" d="M450.25,450.25V349.55H495V495H18V349.55H62.75v100.7Z"/><path class="cls-2" d="M215.15,400.19,256.4,419.8l-44.64,9.77a138.18,138.18,0,0,1-93-11.66l-36-18,39.15-9.4A138.29,138.29,0,0,1,215.15,400.19Z"/><path class="cls-3" d="M276.35,358.48l-20,61.32-19.86-61.38c-14.22-64.17-13.72-158.55,1.45-222.54l18.6-78.44,18.52,78.43C290.22,199.89,290.65,294.3,276.35,358.48Z"/><path class="cls-4" d="M238.08,343,256.4,419.8l-50.54-60.66A353,353,0,0,1,132.3,209.62l-15.14-67.68,45.14,52.61A353.07,353.07,0,0,1,238.08,343Z"/><path class="cls-5" d="M169.57,382.56s42.12,39.06,86.93,37.34C243.57,405,169.57,382.56,169.57,382.56Z"/><path class="cls-6" d="M178.79,322S256.6,369.9,256.6,419.8Z"/><path class="cls-7" d="M223.12,369.8l33.28,50-55.91-22a198.55,198.55,0,0,1-95.94-79l-28.5-44.58,49.58,18.44A198.53,198.53,0,0,1,223.12,369.8Z"/><path class="cls-8" d="M283.68,312.45,256.6,419.51l-.1.39-.1-.39L229.32,312.45c.8,1.6,25.4,51.44,27.18,68.87C258.28,363.89,282.89,314.05,283.68,312.45Z"/><polygon class="cls-9" points="256.6 419.51 256.6 420.31 256.5 419.9 256.6 419.51"/><polygon class="cls-9" points="256.5 419.9 256.4 420.31 256.4 419.51 256.5 419.9"/><path class="cls-2" d="M297.85,400.19,256.6,419.8l44.64,9.77a138.18,138.18,0,0,0,93-11.66l36-18-39.15-9.4A138.29,138.29,0,0,0,297.85,400.19Z"/><path class="cls-4" d="M274.92,343,256.6,419.8l50.54-60.66A353,353,0,0,0,380.7,209.62l15.14-67.68L350.7,194.55A353.07,353.07,0,0,0,274.92,343Z"/><path class="cls-5" d="M343.43,382.56s-42.12,39.06-86.93,37.34C269.43,405,343.43,382.56,343.43,382.56Z"/><path class="cls-6" d="M334.21,322S256.4,369.9,256.4,419.8Z"/><path class="cls-7" d="M289.88,369.8l-33.28,50,55.91-22a198.55,198.55,0,0,0,95.94-79L437,274.23l-49.58,18.44A198.53,198.53,0,0,0,289.88,369.8Z"/><polygon class="cls-9" points="256.4 419.51 256.4 420.31 256.5 419.9 256.4 419.51"/><polygon class="cls-9" points="256.5 419.9 256.6 420.31 256.6 419.51 256.5 419.9"/></svg>