<svg id="Layer_1" data-name="Layer 1" xmlns="http://www.w3.org/2000/svg" viewBox="0 0 16 16"><defs><style>.cls-1{fill:#bcbbbb;}.cls-2{fill:#97c35c;}.cls-3{fill:#3e682b;}.cls-4{fill:#618c3c;}.cls-5{fill:#94bf5a;}.cls-6{fill:#658a40;}.cls-7{fill:#739d48;}.cls-8{fill:#3d662a;}.cls-9{fill:#385e27;}</style></defs><path class="cls-1" d="M14.33,13.46V10.19h1.46v4.73H.27V10.19H1.72v3.27Z"/><path class="cls-2" d="M6.68,11.83,8,12.47l-1.46.32a4.45,4.45,0,0,1-3-.38l-1.18-.58,1.28-.31A4.52,4.52,0,0,1,6.68,11.83Z"/><path class="cls-3" d="M8.67,10.48l-.64,2-.65-2a18.43,18.43,0,0,1,0-7.25L8,.68l.6,2.55A18.25,18.25,0,0,1,8.67,10.48Z"/><path class="cls-4" d="M7.43,10l.6,2.5-1.65-2A11.41,11.41,0,0,1,4,5.63l-.5-2.2L5,5.14A11.53,11.53,0,0,1,7.43,10Z"/><path class="cls-5" d="M5.2,11.26A4.69,4.69,0,0,0,8,12.48,11,11,0,0,0,5.2,11.26Z"/><path class="cls-6" d="M5.5,9.29S8,10.85,8,12.47Z"/><path class="cls-7" d="M6.94,10.85,8,12.47l-1.82-.71A6.47,6.47,0,0,1,3.08,9.19L2.16,7.74l1.61.6A6.4,6.4,0,0,1,6.94,10.85Z"/><path class="cls-8" d="M8.91,9,8,12.46v0L7.14,9A11.55,11.55,0,0,1,8,11.22,12.35,12.35,0,0,1,8.91,9Z"/><polygon class="cls-9" points="8.03 12.46 8.03 12.49 8.03 12.48 8.03 12.46"/><polygon class="cls-9" points="8.03 12.48 8.03 12.49 8.03 12.46 8.03 12.48"/><path class="cls-2" d="M9.37,11.83,8,12.47l1.45.32a4.48,4.48,0,0,0,3-.38l1.17-.58-1.27-.31A4.56,4.56,0,0,0,9.37,11.83Z"/><path class="cls-4" d="M8.63,10,8,12.47l1.65-2a11.53,11.53,0,0,0,2.39-4.87l.49-2.2L11.09,5.14A11.51,11.51,0,0,0,8.63,10Z"/><path class="cls-5" d="M10.86,11.26A4.69,4.69,0,0,1,8,12.48,11,11,0,0,1,10.86,11.26Z"/><path class="cls-6" d="M10.56,9.29S8,10.85,8,12.47Z"/><path class="cls-7" d="M9.11,10.85,8,12.47l1.82-.71A6.45,6.45,0,0,0,13,9.19l.93-1.45-1.61.6A6.46,6.46,0,0,0,9.11,10.85Z"/><polygon class="cls-9" points="8.03 12.46 8.03 12.49 8.03 12.48 8.03 12.46"/><polygon class="cls-9" points="8.03 12.48 8.03 12.49 8.03 12.46 8.03 12.48"/></svg>